<svg width="24" height="24" viewBox="0 0 24 24" fill="none" xmlns="http://www.w3.org/2000/svg">
<g opacity="0.5">
<path d="M15.9998 12C16.0002 12.2336 15.9189 12.4601 15.7698 12.64L10.7698 18.64C10.6 18.8442 10.3561 18.9726 10.0917 18.997C9.82728 19.0214 9.564 18.9397 9.35979 18.77C9.15557 18.6002 9.02715 18.3563 9.00277 18.0919C8.97839 17.8275 9.06005 17.5642 9.22979 17.36L13.7098 12L9.38979 6.63997C9.30672 6.53768 9.24469 6.41998 9.20726 6.29364C9.16983 6.16731 9.15773 6.03481 9.17167 5.90379C9.18561 5.77276 9.22531 5.64578 9.28848 5.53014C9.35166 5.4145 9.43706 5.31249 9.53979 5.22997C9.64261 5.13839 9.76323 5.06903 9.89411 5.02624C10.025 4.98344 10.1633 4.96814 10.3003 4.98128C10.4374 4.99443 10.5703 5.03573 10.6906 5.10262C10.811 5.1695 10.9162 5.26052 10.9998 5.36997L15.8298 11.37C15.9553 11.5551 16.0152 11.7769 15.9998 12Z" fill="#1F2F59"/>
</g>
</svg>
