<svg width="24" height="18" viewBox="0 0 24 18" fill="none" xmlns="http://www.w3.org/2000/svg">
<path d="M21.8107 14.9608C21.8107 15.3326 21.663 15.6892 21.4 15.9521C21.1371 16.215 20.7805 16.3627 20.4087 16.3627H3.58517C3.21335 16.3627 2.85675 16.215 2.59384 15.9521C2.33092 15.6892 2.18321 15.3326 2.18321 14.9608V6.54901C2.18321 6.17718 2.33092 5.82059 2.59384 5.55767C2.85675 5.29475 3.21335 5.14704 3.58517 5.14704H5.22827C6.34316 5.14643 7.4122 4.70319 8.20043 3.91472L9.36405 2.7539C9.62622 2.49165 9.98162 2.34394 10.3524 2.34312H13.6386C14.0104 2.3432 14.367 2.49096 14.6298 2.7539L15.7906 3.91472C16.1813 4.30547 16.6451 4.61542 17.1555 4.82687C17.666 5.03831 18.2131 5.14711 18.7656 5.14704H20.4087C20.7805 5.14704 21.1371 5.29475 21.4 5.55767C21.663 5.82059 21.8107 6.17718 21.8107 6.54901V14.9608ZM3.58517 3.74508C2.84153 3.74508 2.12834 4.0405 1.6025 4.56633C1.07666 5.09217 0.78125 5.80536 0.78125 6.54901L0.78125 14.9608C0.78125 15.7044 1.07666 16.4176 1.6025 16.9434C2.12834 17.4693 2.84153 17.7647 3.58517 17.7647H20.4087C21.1523 17.7647 21.8655 17.4693 22.3914 16.9434C22.9172 16.4176 23.2126 15.7044 23.2126 14.9608V6.54901C23.2126 5.80536 22.9172 5.09217 22.3914 4.56633C21.8655 4.0405 21.1523 3.74508 20.4087 3.74508H18.7656C18.022 3.74493 17.3089 3.44941 16.7832 2.92353L15.6224 1.76271C15.0967 1.23684 14.3836 0.941321 13.64 0.941162H10.3538C9.61025 0.941321 8.89718 1.23684 8.37147 1.76271L7.21064 2.92353C6.68493 3.44941 5.97186 3.74493 5.22827 3.74508H3.58517Z" fill="white"/>
<path d="M11.9987 13.5589C11.0691 13.5589 10.1776 13.1896 9.52034 12.5323C8.86304 11.875 8.49378 10.9835 8.49378 10.054C8.49378 9.1244 8.86304 8.23291 9.52034 7.57562C10.1776 6.91832 11.0691 6.54906 11.9987 6.54906C12.9282 6.54906 13.8197 6.91832 14.477 7.57562C15.1343 8.23291 15.5036 9.1244 15.5036 10.054C15.5036 10.9835 15.1343 11.875 14.477 12.5323C13.8197 13.1896 12.9282 13.5589 11.9987 13.5589ZM11.9987 14.9608C13.3001 14.9608 14.5481 14.4438 15.4684 13.5236C16.3886 12.6034 16.9055 11.3553 16.9055 10.054C16.9055 8.75258 16.3886 7.5045 15.4684 6.58428C14.5481 5.66407 13.3001 5.14709 11.9987 5.14709C10.6973 5.14709 9.44922 5.66407 8.529 6.58428C7.60879 7.5045 7.09182 8.75258 7.09182 10.054C7.09182 11.3553 7.60879 12.6034 8.529 13.5236C9.44922 14.4438 10.6973 14.9608 11.9987 14.9608ZM4.98887 7.25004C4.98887 7.43595 4.91502 7.61424 4.78356 7.7457C4.6521 7.87716 4.47381 7.95102 4.28789 7.95102C4.10198 7.95102 3.92369 7.87716 3.79223 7.7457C3.66077 7.61424 3.58691 7.43595 3.58691 7.25004C3.58691 7.06412 3.66077 6.88583 3.79223 6.75437C3.92369 6.62291 4.10198 6.54906 4.28789 6.54906C4.47381 6.54906 4.6521 6.62291 4.78356 6.75437C4.91502 6.88583 4.98887 7.06412 4.98887 7.25004Z" fill="white"/>
</svg>
