<svg width="24" height="24" viewBox="0 0 24 24" fill="none" xmlns="http://www.w3.org/2000/svg">
<path d="M17.359 15.238C19.06 13.72 20 12 20 12C20 12 17 6.5 12 6.5C11.0396 6.50331 10.09 6.70342 9.20996 7.088L9.97996 7.859C10.6274 7.62315 11.3109 7.50168 12 7.5C14.12 7.5 15.879 8.668 17.168 9.957C17.7883 10.5807 18.3444 11.2651 18.828 12C18.77 12.087 18.706 12.183 18.633 12.288C18.298 12.768 17.803 13.408 17.168 14.043C17.003 14.208 16.831 14.371 16.651 14.529L17.359 15.238Z" fill="#8F97AC"/>
<path d="M15.2969 13.176C15.52 12.5518 15.5613 11.8771 15.416 11.2304C15.2707 10.5837 14.9448 9.99151 14.476 9.52281C14.0073 9.0541 13.4152 8.72813 12.7684 8.58282C12.1217 8.43751 11.447 8.47883 10.8229 8.70199L11.6459 9.52499C12.0302 9.46998 12.422 9.50523 12.7903 9.62795C13.1587 9.75067 13.4933 9.95748 13.7679 10.232C14.0424 10.5065 14.2492 10.8412 14.3719 11.2095C14.4946 11.5778 14.5299 11.9697 14.4749 12.354L15.2969 13.176ZM12.3539 14.475L13.1759 15.297C12.5517 15.5201 11.877 15.5615 11.2303 15.4162C10.5836 15.2708 9.99139 14.9449 9.52269 14.4762C9.05398 14.0075 8.72801 13.4153 8.5827 12.7686C8.43738 12.1218 8.47871 11.4471 8.70187 10.823L9.52487 11.646C9.46986 12.0303 9.50511 12.4221 9.62783 12.7905C9.75055 13.1588 9.95736 13.4935 10.2319 13.768C10.5064 14.0425 10.8411 14.2493 11.2094 14.372C11.5777 14.4947 11.9696 14.53 12.3539 14.475Z" fill="#8F97AC"/>
<path d="M7.35 9.47C7.17 9.63 6.997 9.792 6.832 9.957C6.21165 10.5807 5.65552 11.2651 5.172 12L5.367 12.288C5.702 12.768 6.197 13.408 6.832 14.043C8.121 15.332 9.881 16.5 12 16.5C12.716 16.5 13.39 16.367 14.02 16.14L14.79 16.912C13.9099 17.2965 12.9604 17.4967 12 17.5C7 17.5 4 12 4 12C4 12 4.939 10.279 6.641 8.762L7.349 9.471L7.35 9.47ZM17.646 18.354L5.646 6.354L6.354 5.646L18.354 17.646L17.646 18.354Z" fill="#8F97AC"/>
</svg>
