<svg width="24" height="24" viewBox="0 0 24 24" fill="none" xmlns="http://www.w3.org/2000/svg">
<path d="M20 12C20 12 17 6.5 12 6.5C7 6.5 4 12 4 12C4 12 7 17.5 12 17.5C17 17.5 20 12 20 12ZM5.173 12C5.65651 11.2651 6.21264 10.5807 6.833 9.957C8.12 8.668 9.88 7.5 12 7.5C14.12 7.5 15.879 8.668 17.168 9.957C17.7884 10.5807 18.3445 11.2651 18.828 12C18.77 12.087 18.706 12.183 18.633 12.288C18.298 12.768 17.803 13.408 17.168 14.043C15.879 15.332 14.119 16.5 12 16.5C9.88 16.5 8.121 15.332 6.832 14.043C6.21165 13.4193 5.65652 12.7349 5.173 12Z" fill="#8F97AC"/>
<path d="M12 9.5C11.337 9.5 10.7011 9.76339 10.2322 10.2322C9.76339 10.7011 9.5 11.337 9.5 12C9.5 12.663 9.76339 13.2989 10.2322 13.7678C10.7011 14.2366 11.337 14.5 12 14.5C12.663 14.5 13.2989 14.2366 13.7678 13.7678C14.2366 13.2989 14.5 12.663 14.5 12C14.5 11.337 14.2366 10.7011 13.7678 10.2322C13.2989 9.76339 12.663 9.5 12 9.5ZM8.5 12C8.5 11.0717 8.86875 10.1815 9.52513 9.52513C10.1815 8.86875 11.0717 8.5 12 8.5C12.9283 8.5 13.8185 8.86875 14.4749 9.52513C15.1313 10.1815 15.5 11.0717 15.5 12C15.5 12.9283 15.1313 13.8185 14.4749 14.4749C13.8185 15.1313 12.9283 15.5 12 15.5C11.0717 15.5 10.1815 15.1313 9.52513 14.4749C8.86875 13.8185 8.5 12.9283 8.5 12Z" fill="#8F97AC"/>
</svg>
