<svg width="19" height="20" viewBox="0 0 19 20" fill="none" xmlns="http://www.w3.org/2000/svg">
<path d="M0 0.714305C0 0.52486 0.0769915 0.343173 0.214037 0.209215C0.351083 0.0752569 0.536957 0 0.730769 0H18.2692C18.463 0 18.6489 0.0752569 18.786 0.209215C18.923 0.343173 19 0.52486 19 0.714305V3.57153C19 3.74768 18.9333 3.91762 18.8129 4.04868L12.4231 10.9889V17.8576C12.423 18.0075 12.3746 18.1535 12.2849 18.275C12.1952 18.3966 12.0687 18.4874 11.9232 18.5348L7.53862 19.9634C7.42882 19.9991 7.3119 20.0089 7.19749 19.9918C7.08309 19.9748 6.97446 19.9314 6.88056 19.8653C6.78665 19.7992 6.71016 19.7122 6.65737 19.6115C6.60458 19.5108 6.57701 19.3994 6.57692 19.2862V10.9889L0.187077 4.04868C0.0666581 3.91762 3.23736e-05 3.74768 0 3.57153V0.714305ZM1.46154 1.42861V3.29723L7.85138 10.2374C7.9718 10.3685 8.03843 10.5384 8.03846 10.7146V18.2948L10.9615 17.3433V10.7146C10.9616 10.5384 11.0282 10.3685 11.1486 10.2374L17.5385 3.29723V1.42861H1.46154Z" fill="#848A9A"/>
</svg>
