<svg width="14" height="14" viewBox="0 0 14 14" fill="none" xmlns="http://www.w3.org/2000/svg">
<path d="M6.57778 12.2727C3.39907 12.2727 0.822222 9.70854 0.822222 6.54545C0.822222 3.38237 3.39907 0.818182 6.57778 0.818182C9.75648 0.818182 12.3333 3.38237 12.3333 6.54545C12.3333 9.70854 9.75648 12.2727 6.57778 12.2727ZM6.57778 13.0909C10.2106 13.0909 13.1556 10.1604 13.1556 6.54545C13.1556 2.9305 10.2106 0 6.57778 0C2.94497 0 0 2.9305 0 6.54545C0 10.1604 2.94497 13.0909 6.57778 13.0909Z" fill="#16192C"/>
<path d="M7.34302 5.39009L5.4593 5.625L5.39185 5.93661L5.76281 6.00373C6.0037 6.06126 6.05188 6.14755 5.99888 6.38725L5.39185 9.22532C5.23287 9.95881 5.47857 10.304 6.05669 10.304C6.50474 10.304 7.02505 10.0978 7.26112 9.81499L7.33339 9.47461C7.16959 9.61843 6.9287 9.67596 6.76972 9.67596C6.54328 9.67596 6.46138 9.51776 6.51919 9.2397L7.34302 5.39009Z" fill="#16192C"/>
<path d="M7.4 3.68182C7.4 4.13369 7.03188 4.5 6.57778 4.5C6.12368 4.5 5.75556 4.13369 5.75556 3.68182C5.75556 3.22995 6.12368 2.86364 6.57778 2.86364C7.03188 2.86364 7.4 3.22995 7.4 3.68182Z" fill="#16192C"/>
</svg>
