<svg width="48" height="48" viewBox="0 0 48 48" fill="none" xmlns="http://www.w3.org/2000/svg">
<circle cx="24" cy="24" r="24" fill="url(#paint0_linear_213_6465)"/>
<rect x="10" y="16" width="27" height="16" rx="4" fill="white"/>
<rect opacity="0.2" x="11" y="17" width="25" height="14" rx="4" fill="#BAA0FB"/>
<circle cx="24" cy="24" r="4" fill="#BD97F9"/>
<circle cx="33" cy="30" r="7" fill="#673DAA"/>
<path d="M35 31.696C35 31.9733 34.93 32.2347 34.7899 32.48C34.655 32.72 34.4527 32.92 34.1829 33.08C33.9183 33.2347 33.6044 33.3253 33.2412 33.352V34H32.7432V33.344C32.2244 33.296 31.8067 33.136 31.4903 32.864C31.1738 32.5867 31.0104 32.2133 31 31.744H32.1673C32.1984 32.128 32.3904 32.36 32.7432 32.44V30.912C32.3696 30.816 32.0687 30.72 31.8405 30.624C31.6122 30.528 31.415 30.3733 31.249 30.16C31.083 29.9467 31 29.656 31 29.288C31 28.824 31.1608 28.4453 31.4825 28.152C31.8093 27.8587 32.2296 27.6907 32.7432 27.648V27H33.2412V27.648C33.7393 27.6907 34.1362 27.8453 34.4319 28.112C34.7328 28.3787 34.9014 28.7467 34.9377 29.216H33.7626C33.7471 29.0613 33.6926 28.928 33.5992 28.816C33.511 28.6987 33.3917 28.616 33.2412 28.568V30.08C33.6303 30.1813 33.9364 30.28 34.1595 30.376C34.3878 30.4667 34.585 30.6187 34.751 30.832C34.917 31.04 35 31.328 35 31.696ZM32.1362 29.232C32.1362 29.408 32.1881 29.552 32.2918 29.664C32.3956 29.7707 32.546 29.8587 32.7432 29.928V28.544C32.5564 28.5707 32.4086 28.6427 32.2996 28.76C32.1907 28.8773 32.1362 29.0347 32.1362 29.232ZM33.2412 32.456C33.4384 32.4187 33.5914 32.336 33.7004 32.208C33.8145 32.08 33.8716 31.9253 33.8716 31.744C33.8716 31.568 33.8171 31.4267 33.7082 31.32C33.5992 31.2133 33.4436 31.1253 33.2412 31.056V32.456Z" fill="white"/>
<circle opacity="0.5" cx="10.0811" cy="16.7998" r="0.96" fill="white"/>
<circle opacity="0.5" cx="20.3988" cy="41.0404" r="1.68" fill="white"/>
<circle opacity="0.5" cx="42.2403" cy="25.92" r="1.02" stroke="white" stroke-width="1.8"/>
<defs>
<linearGradient id="paint0_linear_213_6465" x1="6.72" y1="-4.08" x2="36.48" y2="51.36" gradientUnits="userSpaceOnUse">
<stop offset="0.0149831" stop-color="#C283F4"/>
<stop offset="1" stop-color="#B3B6FF"/>
</linearGradient>
</defs>
</svg>
