<svg width="14" height="14" viewBox="0 0 14 14" fill="none" xmlns="http://www.w3.org/2000/svg">
<path d="M9.98655 0.120186C10.0247 0.0820886 10.0701 0.0518627 10.1201 0.0312392C10.17 0.0106157 10.2235 0 10.2776 0C10.3317 0 10.3852 0.0106157 10.4352 0.0312392C10.4851 0.0518627 10.5305 0.0820886 10.5687 0.120186L13.0354 2.57473C13.0736 2.61273 13.104 2.65788 13.1247 2.70758C13.1455 2.75728 13.1561 2.81056 13.1561 2.86437C13.1561 2.91818 13.1455 2.97146 13.1247 3.02116C13.104 3.07086 13.0736 3.116 13.0354 3.154L4.81313 11.3358C4.77367 11.3748 4.72668 11.4054 4.675 11.4258L0.563885 13.0622C0.489175 13.0919 0.40733 13.0992 0.328499 13.0831C0.249667 13.067 0.177315 13.0283 0.120412 12.9717C0.0635087 12.915 0.0245572 12.843 0.00838614 12.7646C-0.00778488 12.6862 -0.000464222 12.6047 0.0294405 12.5304L1.67388 8.43946C1.69438 8.38802 1.72515 8.34126 1.76433 8.302L9.98655 0.120186ZM9.21448 2.04619L11.0998 3.92228L12.163 2.86437L10.2776 0.988277L9.21448 2.04619ZM10.5185 4.50073L8.63317 2.62464L3.28873 7.94282V8.18255H3.69984C3.80887 8.18255 3.91344 8.22565 3.99054 8.30237C4.06764 8.37909 4.11095 8.48314 4.11095 8.59164V9.00073H4.52206C4.6311 9.00073 4.73566 9.04383 4.81276 9.12055C4.88986 9.19727 4.93317 9.30132 4.93317 9.40982V9.81891H5.17408L10.5185 4.50073ZM2.49282 8.73482L2.40566 8.82155L1.14931 11.9478L4.29102 10.6976L4.37817 10.6109C4.29975 10.5818 4.23214 10.5295 4.18439 10.461C4.13663 10.3926 4.11101 10.3113 4.11095 10.228V9.81891H3.69984C3.59081 9.81891 3.48624 9.77581 3.40914 9.69909C3.33204 9.62237 3.28873 9.51832 3.28873 9.40982V9.00073H2.87762C2.7939 9.00067 2.71219 8.97517 2.64343 8.92765C2.57467 8.88014 2.52212 8.81286 2.49282 8.73482Z" fill="#16192C"/>
</svg>
