<svg width="48" height="48" viewBox="0 0 48 48" fill="none" xmlns="http://www.w3.org/2000/svg">
<circle cx="24" cy="24" r="24" fill="url(#paint0_linear_213_6482)"/>
<circle opacity="0.5" cx="10.0801" cy="16.7998" r="0.96" fill="white"/>
<circle opacity="0.5" cx="20.4007" cy="41.0404" r="1.68" fill="white"/>
<circle opacity="0.5" cx="42.2413" cy="25.92" r="1.02" stroke="white" stroke-width="1.8"/>
<rect x="15.75" y="15" width="15.75" height="21.75" rx="4" fill="#E3988A"/>
<rect x="14.25" y="12" width="14.25" height="24.75" rx="4" fill="white"/>
<rect x="16.5" y="18.75" width="5.25" height="2.25" rx="1.125" fill="#FFE8E8"/>
<rect x="16.5" y="21.75" width="9.75" height="3.75" rx="1.875" fill="#FFE8E8"/>
<rect x="16.5" y="28.5" width="6" height="1.5" rx="0.75" fill="#FFE8E8"/>
<circle cx="29.25" cy="30" r="6" fill="#ED5944"/>
<g clip-path="url(#clip0_213_6482)">
<path d="M32.0625 31.3812V32.4862C32.0625 32.5654 32.0326 32.6416 31.9786 32.6994C31.9247 32.7573 31.8508 32.7926 31.7719 32.7981C31.6353 32.8075 31.5237 32.8125 31.4375 32.8125C28.6759 32.8125 26.4375 30.5741 26.4375 27.8125C26.4375 27.7263 26.4422 27.6147 26.4519 27.4781C26.4574 27.3992 26.4927 27.3253 26.5506 27.2714C26.6084 27.2174 26.6846 27.1875 26.7638 27.1875H27.8687C27.9075 27.1875 27.9449 27.2018 27.9737 27.2278C28.0024 27.2538 28.0205 27.2896 28.0244 27.3281C28.0316 27.4 28.0381 27.4572 28.0444 27.5006C28.1065 27.934 28.2338 28.3556 28.4219 28.7509C28.4516 28.8134 28.4322 28.8881 28.3759 28.9281L27.7016 29.41C28.1139 30.3708 28.8795 31.1364 29.8403 31.5487L30.3216 30.8756C30.3412 30.8481 30.3699 30.8284 30.4027 30.8199C30.4354 30.8114 30.47 30.8146 30.5006 30.8291C30.8959 31.0168 31.3174 31.1438 31.7506 31.2056C31.7941 31.2119 31.8513 31.2188 31.9225 31.2256C31.961 31.2296 31.9967 31.2477 32.0226 31.2764C32.0485 31.3052 32.0629 31.3425 32.0628 31.3812H32.0625Z" fill="white"/>
</g>
<defs>
<linearGradient id="paint0_linear_213_6482" x1="6.72" y1="-4.08" x2="36.48" y2="51.36" gradientUnits="userSpaceOnUse">
<stop stop-color="#FF968B"/>
<stop offset="1" stop-color="#FFCEB6"/>
</linearGradient>
<clipPath id="clip0_213_6482">
<rect width="7.5" height="7.5" fill="white" transform="translate(25.5 26.25)"/>
</clipPath>
</defs>
</svg>
