<svg width="20" height="20" viewBox="0 0 20 20" fill="none" xmlns="http://www.w3.org/2000/svg">
<path d="M9.9987 5.41927C9.49453 5.41927 9.08203 5.83177 9.08203 6.33594V9.08594H6.33203C5.82786 9.08594 5.41536 9.49844 5.41536 10.0026C5.41536 10.5068 5.82786 10.9193 6.33203 10.9193H9.08203V13.6693C9.08203 14.1734 9.49453 14.5859 9.9987 14.5859C10.5029 14.5859 10.9154 14.1734 10.9154 13.6693V10.9193H13.6654C14.1695 10.9193 14.582 10.5068 14.582 10.0026C14.582 9.49844 14.1695 9.08594 13.6654 9.08594H10.9154V6.33594C10.9154 5.83177 10.5029 5.41927 9.9987 5.41927ZM9.9987 0.835938C4.9387 0.835938 0.832031 4.9426 0.832031 10.0026C0.832031 15.0626 4.9387 19.1693 9.9987 19.1693C15.0587 19.1693 19.1654 15.0626 19.1654 10.0026C19.1654 4.9426 15.0587 0.835938 9.9987 0.835938ZM9.9987 17.3359C5.9562 17.3359 2.66536 14.0451 2.66536 10.0026C2.66536 5.9601 5.9562 2.66927 9.9987 2.66927C14.0412 2.66927 17.332 5.9601 17.332 10.0026C17.332 14.0451 14.0412 17.3359 9.9987 17.3359Z" fill="white"/>
</svg>
