<svg width="11" height="14" viewBox="0 0 11 14" fill="none" xmlns="http://www.w3.org/2000/svg">
<path fill-rule="evenodd" clip-rule="evenodd" d="M10.6889 3.27266C10.6889 3.48966 10.6023 3.69776 10.4481 3.8512C10.2939 4.00464 10.0847 4.09084 9.86667 4.09084H9.45556V11.4545C9.45556 11.8885 9.2823 12.3047 8.97391 12.6116C8.66552 12.9184 8.24725 13.0908 7.81111 13.0908H2.87778C2.44164 13.0908 2.02337 12.9184 1.71498 12.6116C1.40659 12.3047 1.23333 11.8885 1.23333 11.4545V4.09084H0.822222C0.604155 4.09084 0.39502 4.00464 0.240823 3.8512C0.0866267 3.69776 0 3.48966 0 3.27266V2.45448C0 2.23748 0.0866267 2.02938 0.240823 1.87594C0.39502 1.7225 0.604155 1.6363 0.822222 1.6363H3.7C3.7 1.4193 3.78663 1.21119 3.94082 1.05776C4.09502 0.904316 4.30416 0.818115 4.52222 0.818115H6.16667C6.38473 0.818115 6.59387 0.904316 6.74807 1.05776C6.90226 1.21119 6.98889 1.4193 6.98889 1.6363H9.86667C10.0847 1.6363 10.2939 1.7225 10.4481 1.87594C10.6023 2.02938 10.6889 2.23748 10.6889 2.45448V3.27266ZM2.15258 4.09084L2.05556 4.13912V11.4545C2.05556 11.6715 2.14218 11.8796 2.29638 12.033C2.45058 12.1865 2.65971 12.2727 2.87778 12.2727H7.81111C8.02918 12.2727 8.23831 12.1865 8.39251 12.033C8.54671 11.8796 8.63333 11.6715 8.63333 11.4545V4.13912L8.53631 4.09084H2.15258Z" fill="#16192C"/>
<path d="M3.28904 5.31812C3.39807 5.31812 3.50264 5.36122 3.57974 5.43794C3.65684 5.51465 3.70015 5.61871 3.70015 5.72721V10.6363C3.70015 10.7448 3.65684 10.8488 3.57974 10.9256C3.50264 11.0023 3.39807 11.0454 3.28904 11.0454C3.18001 11.0454 3.07544 11.0023 2.99834 10.9256C2.92124 10.8488 2.87793 10.7448 2.87793 10.6363V5.72721C2.87793 5.61871 2.92124 5.51465 2.99834 5.43794C3.07544 5.36122 3.18001 5.31812 3.28904 5.31812ZM5.3446 5.31812C5.45363 5.31812 5.5582 5.36122 5.6353 5.43794C5.71239 5.51465 5.75571 5.61871 5.75571 5.72721V10.6363C5.75571 10.7448 5.71239 10.8488 5.6353 10.9256C5.5582 11.0023 5.45363 11.0454 5.3446 11.0454C5.23556 11.0454 5.131 11.0023 5.0539 10.9256C4.9768 10.8488 4.93349 10.7448 4.93349 10.6363V5.72721C4.93349 5.61871 4.9768 5.51465 5.0539 5.43794C5.131 5.36122 5.23556 5.31812 5.3446 5.31812ZM7.81126 5.72721C7.81126 5.61871 7.76795 5.51465 7.69085 5.43794C7.61375 5.36122 7.50919 5.31812 7.40015 5.31812C7.29112 5.31812 7.18655 5.36122 7.10945 5.43794C7.03235 5.51465 6.98904 5.61871 6.98904 5.72721V10.6363C6.98904 10.7448 7.03235 10.8488 7.10945 10.9256C7.18655 11.0023 7.29112 11.0454 7.40015 11.0454C7.50919 11.0454 7.61375 11.0023 7.69085 10.9256C7.76795 10.8488 7.81126 10.7448 7.81126 10.6363V5.72721Z" fill="#16192C"/>
</svg>
